# xmcd
#
# Track frame offsets:
#	183
#	20680
#	44078
#	58353
#	76600
#	87405
#	102360
#	120800
#	139800
#	159315
#
# Disc length: 2311 seconds
#
# Revision: 0
# Processed by: cddbd v1.4PL0 Copyright (c) Steve Scherf et al.
# Submitted via: audiograbber 1.82.01
#
DISCID=7d09050a
DTITLE=Tony Sheridan - Here And Now!
DYEAR=1900
DGENRE=
TTITLE0=Winter
TTITLE1=What`d I Say
TTITLE2=Get On The Right Track Baby
TTITLE3=Skinny Minnie
TTITLE4=My Bonnie (II)
TTITLE5=Money Honey
TTITLE6=Brother Sun
TTITLE7=From A Whisper To A Shout
TTITLE8=Get Out Of My Life Women
TTITLE9=On And On
EXTD=
EXTT0=
EXTT1=
EXTT2=
EXTT3=
EXTT4=
EXTT5=
EXTT6=
EXTT7=
EXTT8=
EXTT9=
PLAYORDER=
